{"title":"John Carter[2012]ENG[BRRip]XviD-{RedDragon}","uid":7324715,"size":785500998,"categoryP":"video","categoryS":"movies","magnet":"?xt=urn:btih:495c2bbd10b01400f660beca0d4af0c6fa6eeea5&amp;dn=John+Carter%5B2012%5DENG%5BBRRip%5DXviD-%7BRedDragon%7D&amp;tr=udp%3A%2F%2Ftracker.openbittorrent.com%3A80&amp;tr=udp%3A%2F%2Fopen.demonii.com%3A1337&amp;tr=udp%3A%2F%2Ftracker.coppersurfer.tk%3A6969&amp;tr=udp%3A%2F%2Fexodus.desync.com%3A6969","seeders":1,"leechers":0,"uploader":"RedDr4gon","files":13,"time":1338721740,"description":"\n\nGeneral.\n\nComplete name                    : John Carter[2012]ENG[BRRip]XviD-{RedDragon}.mp4\nFormat                           : MPEG-4\nFormat profile                   : Base Media / Version 2\nCodec ID                         : mp42\nFile size                        : 749 MiB\nDuration                         : 2h 12mn\nOverall bit rate                 : 793 Kbps\nIMDB Rating                      : 6.9/10\nIMDB Link                        : http://www.imdb.com/title/tt0401729/\n\n\nVideo.\n\nID                               : 1\nFormat                           : MPEG-4 Visual\nFormat profile                   : Simple@L1\nFormat settings, BVOP            : No\nFormat settings, QPel            : No\nFormat settings, GMC             : No warppoints\nFormat settings, Matrix          : Default (H.263)\nCodec ID                         : 20\nDuration                         : 2h 12mn\nBit rate mode                    : Variable\nBit rate                         : 629 Kbps\nMaximum bit rate                 : 4,974 Kbps\nWidth                            : 608 pixels\nHeight                           : 256 pixels\nDisplay aspect ratio             : 2.35:1\nFrame rate mode                  : Variable\nFrame rate                       : 23.976 fps\nMinimum frame rate               : 23.974 fps\nMaximum frame rate               : 23.981 fps\nColor space                      : YUV\nChroma subsampling               : 4:2:0\nBit depth                        : 8 bits\nScan type                        : Progressive\nBits/(Pixel*Frame)               : 0.169\nStream size                      : 594 MiB (79%)\nWriting library                  : Lavc52.94.3\nEncoded date                     : UTC 2012-06-02 13:44:35\nTagged date                      : UTC 2012-06-02 13:51:50\n\n\nAudio.\n\nID                               : 2\nFormat                           : AAC\nFormat/Info                      : Advanced Audio Codec\nFormat version                   : Version 4\nFormat profile                   : LC\nFormat settings, SBR             : No\nCodec ID                         : 40\nDuration                         : 2h 12mn\nBit rate mode                    : Variable\nBit rate                         : 160 Kbps\nMaximum bit rate                 : 185 Kbps\nChannel(s)                       : 2 channels\nChannel positions                : Front: L R\nSampling rate                    : 48.0 KHz\nStream size                      : 151 MiB (20%)\n","torrent":{"xt":"urn:btih:495c2bbd10b01400f660beca0d4af0c6fa6eeea5","amp;dn":"John+Carter%5B2012%5DENG%5BBRRip%5DXviD-%7BRedDragon%7D","amp;tr":["udp%3A%2F%2Ftracker.openbittorrent.com%3A80","udp%3A%2F%2Fopen.demonii.com%3A1337","udp%3A%2F%2Ftracker.coppersurfer.tk%3A6969","udp%3A%2F%2Fexodus.desync.com%3A6969"],"infoHash":"495c2bbd10b01400f660beca0d4af0c6fa6eeea5","infoHashBuffer":{"type":"Buffer","data":[73,92,43,189,16,176,20,0,246,96,190,202,13,74,240,198,250,110,238,165]},"announce":[],"urlList":[]}}